<?xml version="1.0" encoding="UTF-8"?>
<svg xmlns="http://www.w3.org/2000/svg" viewBox="0 0 256 256" role="img" aria-label="Tontine Connect">
  <defs>
    <linearGradient id="bg1" x1="0" y1="0" x2="1" y2="1">
      <stop offset="0%" stop-color="#7c3aed"/>
      <stop offset="100%" stop-color="#5b21b6"/>
    </linearGradient>
  </defs>

  <rect width="256" height="256" rx="56" fill="url(#bg1)"/>

  <g transform="translate(128 128)">
    <circle r="80" fill="none" stroke="#ede9fe" stroke-width="3" stroke-opacity="0.45" stroke-dasharray="2 6"/>

    <path d="M 0 -94 A 94 94 0 0 1 81.4 47" fill="none" stroke="#ffffff" stroke-width="7" stroke-linecap="round"/>
    <path d="M 81.4 47 l -4 -19 l 19 -4" fill="none" stroke="#ffffff" stroke-width="7" stroke-linecap="round" stroke-linejoin="round"/>

    <g transform="translate(0 -74)">
      <circle cy="-9" r="9" fill="#fbbf24"/>
      <path d="M -14 10 a 14 14 0 0 1 28 0 Z" fill="#fbbf24"/>
    </g>

    <g fill="#ede9fe">
      <g transform="translate(64 -37)"><circle cy="-8" r="7"/><path d="M -12 8 a 12 12 0 0 1 24 0 Z"/></g>
      <g transform="translate(64 37)"><circle cy="-8" r="7"/><path d="M -12 8 a 12 12 0 0 1 24 0 Z"/></g>
      <g transform="translate(0 74)"><circle cy="-8" r="7"/><path d="M -12 8 a 12 12 0 0 1 24 0 Z"/></g>
      <g transform="translate(-64 37)"><circle cy="-8" r="7"/><path d="M -12 8 a 12 12 0 0 1 24 0 Z"/></g>
      <g transform="translate(-64 -37)"><circle cy="-8" r="7"/><path d="M -12 8 a 12 12 0 0 1 24 0 Z"/></g>
    </g>

    <g transform="translate(0 4)">
      <path d="M -30 -6 L 0 -32 L 30 -6 Z" fill="#ffffff"/>
      <rect x="-24" y="-6" width="48" height="32" rx="3" fill="#ffffff"/>
      <rect x="-7" y="10" width="14" height="16" rx="1.5" fill="#7c3aed"/>
      <rect x="-17" y="2" width="9" height="9" rx="1.5" fill="#7c3aed"/>
      <rect x="8" y="2" width="9" height="9" rx="1.5" fill="#7c3aed"/>
    </g>
  </g>
</svg>
